<?xml version="1.0" standalone="no"?>
<!DOCTYPE svg PUBLIC "-//W3C//DTD SVG 20010904//EN"
 "http://www.w3.org/TR/2001/REC-SVG-20010904/DTD/svg10.dtd">
<svg version="1.0" xmlns="http://www.w3.org/2000/svg"
 width="700.000000pt" height="700.000000pt" viewBox="0 0 700.000000 700.000000"
 preserveAspectRatio="xMidYMid meet">
<metadata>
Created by potrace 1.14, written by Peter Selinger 2001-2017
</metadata>
<g transform="translate(0.000000,700.000000) scale(0.100000,-0.100000)"
fill="#000000" stroke="none">
<path d="M1312 6774 c-68 -18 -104 -37 -152 -80 -51 -46 -94 -115 -120 -192
-16 -48 -82 -565 -270 -2090 -138 -1115 -250 -2048 -250 -2073 0 -218 120
-370 335 -424 46 -11 537 -74 1149 -148 17 -2 24 15 51 113 l32 115 -36 8
c-20 4 -277 36 -571 72 -295 36 -554 72 -577 81 -96 35 -137 99 -136 209 2
102 479 3970 498 4033 28 91 109 152 203 152 33 0 2537 -306 2587 -316 71 -15
143 -71 164 -127 16 -40 14 -131 -6 -294 -9 -78 -15 -145 -12 -148 9 -8 221
-66 226 -61 3 2 16 94 29 203 28 218 26 309 -6 400 -26 75 -76 138 -143 183
-108 72 -92 70 -1072 190 -181 22 -458 56 -615 76 -157 19 -466 57 -687 84
-420 52 -532 58 -621 34z"/>
<path d="M1656 5413 c-219 -448 -396 -816 -394 -818 8 -7 254 -33 259 -27 4 4
48 99 99 212 50 113 93 206 94 208 5 5 671 -80 677 -86 3 -4 23 -104 44 -222
21 -118 40 -220 42 -226 3 -9 253 -47 261 -39 2 1 -81 395 -183 874 -102 480
-185 878 -185 886 0 8 -6 15 -13 15 -15 0 -239 28 -278 34 -24 5 -38 -21 -423
-811z m612 140 c45 -245 80 -448 77 -451 -2 -2 -126 10 -275 28 -236 29 -270
35 -265 49 22 59 371 821 376 821 3 0 42 -201 87 -447z"/>
<path d="M3452 5675 c-35 -8 -83 -25 -107 -39 -59 -35 -129 -116 -165 -191
-19 -39 -229 -786 -571 -2026 l-542 -1964 -1 -120 c-1 -112 1 -124 28 -182 47
-103 144 -181 280 -227 62 -21 2419 -670 2513 -692 105 -25 251 -16 325 19 72
35 146 116 188 203 20 44 218 744 572 2028 l542 1961 0 125 c1 117 -1 129 -27
182 -39 79 -106 142 -202 189 -79 38 -145 58 -1075 312 -151 42 -408 112 -570
157 -795 219 -950 260 -1015 270 -86 12 -95 12 -173 -5z m1423 -579 c671 -185
1234 -342 1250 -348 100 -39 149 -106 148 -203 0 -47 -114 -471 -532 -1990
-293 -1062 -541 -1949 -552 -1972 -40 -84 -127 -132 -216 -119 -22 3 -149 35
-280 71 -131 37 -687 190 -1236 341 -548 150 -1012 281 -1030 290 -102 52
-138 134 -113 254 21 98 1054 3846 1072 3888 36 88 114 135 209 128 35 -3 561
-143 1280 -340z"/>
<path d="M3990 5065 c0 -10 -292 -1064 -312 -1125 -76 -238 -184 -306 -398
-250 -41 10 -75 18 -76 17 -1 -1 -13 -43 -27 -93 l-25 -91 92 -24 c74 -19 116
-24 221 -24 127 0 132 1 197 33 116 57 203 176 261 357 14 44 90 312 167 595
78 283 143 522 146 531 4 13 -17 22 -109 48 -113 31 -137 35 -137 26z"/>
<path d="M4620 2921 c-138 -124 -255 -217 -515 -406 -127 -92 -270 -199 -318
-237 -99 -79 -191 -182 -219 -245 -59 -133 -79 -328 -44 -430 26 -77 92 -145
184 -190 70 -35 83 -38 161 -38 79 0 91 3 151 35 38 21 94 65 137 108 62 63
75 72 97 66 16 -4 26 -13 26 -24 0 -29 -78 -247 -116 -323 -43 -88 -67 -127
-117 -195 -22 -29 -38 -54 -36 -55 2 -2 58 -18 124 -36 66 -18 127 -34 135
-37 13 -3 15 22 15 184 1 185 12 269 55 424 11 37 11 38 42 25 28 -12 33 -19
45 -81 48 -238 169 -346 385 -346 170 0 287 105 357 320 67 208 49 294 -178
823 -130 302 -188 453 -236 612 -19 66 -37 123 -38 126 -1 3 -45 -33 -97 -80z"/>
<path d="M2344 3695 c-413 -411 -448 -467 -448 -730 0 -123 14 -182 65 -258
48 -72 154 -132 249 -139 l34 -3 62 225 c34 124 121 440 193 704 73 263 131
479 129 480 -2 1 -130 -125 -284 -279z"/>
</g>
</svg>
