<?xml version="1.0" standalone="no"?>
<!DOCTYPE svg PUBLIC "-//W3C//DTD SVG 20010904//EN"
 "http://www.w3.org/TR/2001/REC-SVG-20010904/DTD/svg10.dtd">
<svg version="1.0" xmlns="http://www.w3.org/2000/svg"
 width="700.000000pt" height="700.000000pt" viewBox="0 0 700.000000 700.000000"
 preserveAspectRatio="xMidYMid meet">
<metadata>
Created by potrace 1.14, written by Peter Selinger 2001-2017
</metadata>
<g transform="translate(0.000000,700.000000) scale(0.100000,-0.100000)"
fill="#000000" stroke="none">
<path d="M1 4758 l1 -2243 64 505 c62 491 133 1067 369 3000 63 514 117 945
119 958 l3 22 -278 0 -279 0 1 -2242z"/>
<path d="M411 4613 c-212 -1720 -293 -2414 -293 -2482 2 -222 91 -374 267
-457 105 -50 159 -61 555 -110 201 -25 507 -63 679 -85 173 -21 318 -36 321
-32 4 5 24 68 44 142 40 145 39 151 -17 151 -70 0 -1338 162 -1381 176 -90 30
-154 109 -170 209 -5 27 91 837 289 2441 162 1320 295 2408 295 2417 0 15 -15
17 -148 17 l-147 0 -294 -2387z"/>
<path d="M3425 6979 c77 -10 325 -40 550 -68 226 -28 434 -58 463 -66 68 -21
145 -92 161 -150 16 -61 14 -152 -11 -347 -12 -98 -20 -180 -17 -183 8 -8 251
-75 272 -75 9 0 17 5 17 11 0 7 12 109 26 228 41 343 28 473 -61 606 l-40 60
-750 1 -750 2 140 -19z"/>
<path d="M4984 6958 c41 -71 67 -174 73 -288 4 -84 -1 -156 -27 -363 -18 -142
-31 -259 -29 -261 5 -5 1977 -546 1989 -546 6 0 10 269 10 750 l0 750 -1020 0
-1021 0 25 -42z"/>
<path d="M1882 6668 c-49 -101 -265 -545 -481 -986 -216 -442 -391 -806 -388
-808 9 -9 311 -44 317 -36 4 4 57 119 119 257 62 137 114 251 115 252 6 6 810
-97 816 -104 4 -4 29 -129 55 -278 27 -148 50 -272 51 -274 4 -5 315 -43 320
-38 2 2 -21 120 -52 263 -30 142 -132 619 -225 1059 -93 440 -172 807 -175
816 -3 13 -41 20 -187 38 -100 12 -185 21 -189 21 -5 0 -48 -82 -96 -182z
m354 -651 c52 -291 94 -530 92 -531 -4 -4 -652 75 -657 80 -2 2 99 230 225
508 156 343 231 499 236 488 4 -10 51 -255 104 -545z"/>
<path d="M3650 6182 c-168 -44 -291 -179 -359 -392 -27 -84 -1266 -4590 -1292
-4695 -26 -109 -26 -261 1 -347 44 -142 176 -262 355 -322 27 -10 384 -109
792 -222 l742 -204 556 2 556 3 -978 269 c-538 148 -1106 304 -1263 347 -157
43 -307 89 -334 101 -98 46 -156 149 -143 257 6 48 1276 4675 1303 4748 22 58
75 117 127 142 96 47 -3 70 1862 -444 132 -37 484 -133 782 -215 299 -82 565
-161 593 -175 l50 -25 0 164 c0 91 -3 167 -7 169 -5 3 -107 32 -228 65 -121
34 -598 165 -1060 292 -1922 529 -1811 500 -1930 499 -33 0 -89 -8 -125 -17z"/>
<path d="M4320 5455 c0 -20 -387 -1402 -406 -1448 -51 -128 -126 -216 -200
-236 -62 -17 -171 -13 -262 10 -45 12 -84 20 -86 18 -5 -6 -66 -222 -63 -225
7 -8 210 -55 278 -65 313 -45 518 91 645 427 18 48 392 1390 398 1428 0 5 -66
29 -149 53 -169 48 -155 44 -155 38z"/>
<path d="M6476 2542 c-548 -1993 -688 -2496 -700 -2525 -8 -16 3 -17 153 -17
89 0 161 3 161 6 0 3 205 749 455 1659 l455 1653 -2 556 -3 556 -519 -1888z"/>
<path d="M2235 4348 c-150 -28 -298 -153 -383 -324 -52 -103 -64 -157 -69
-320 -6 -169 6 -251 57 -406 41 -123 81 -199 253 -485 116 -193 154 -249 160
-235 4 9 107 377 228 817 l220 800 -48 44 c-105 96 -265 138 -418 109z"/>
<path d="M5100 2867 c-127 -123 -328 -283 -650 -517 -555 -403 -628 -480 -691
-720 -30 -117 -36 -266 -15 -350 30 -115 102 -202 216 -260 208 -105 369 -71
557 116 79 79 95 91 118 86 15 -2 29 -11 32 -18 7 -19 -50 -197 -104 -322 -53
-125 -119 -241 -185 -323 l-47 -58 37 -11 c20 -5 100 -27 177 -49 77 -21 142
-37 143 -36 2 2 -1 35 -7 74 -14 88 -14 212 -1 321 14 110 57 323 73 359 11
25 15 27 44 19 27 -7 33 -14 38 -46 14 -80 47 -186 76 -243 82 -164 213 -235
419 -227 84 3 104 7 162 36 117 57 205 179 262 361 42 132 50 215 31 312 -28
150 -64 248 -258 699 -74 173 -160 384 -191 468 -55 149 -126 379 -126 408 0
8 -3 14 -7 14 -5 -1 -51 -42 -103 -93z"/>
<path d="M6621 1393 c-206 -747 -376 -1366 -379 -1375 -4 -17 19 -18 377 -18
l381 0 0 1375 c0 756 -1 1375 -3 1375 -1 0 -171 -611 -376 -1357z"/>
<path d="M0 946 l0 -946 1663 1 c914 0 1658 2 1652 4 -5 3 -230 65 -500 139
-512 141 -533 147 -630 198 -91 47 -136 81 -200 150 -152 164 -191 392 -116
683 17 66 31 121 31 122 0 3 -35 7 -710 89 -344 41 -661 84 -705 96 -212 54
-362 165 -443 327 l-42 83 0 -946z"/>
</g>
</svg>
